# Blender v2.79 (sub 0) OBJ File: ''
# www.blender.org
o dino
v 0.125481 0.011538 -0.043630
v 0.119222 0.073879 -0.065513
v 0.188285 0.053623 -0.067871
v 0.200012 -0.016804 -0.024134
v 0.121886 -0.014237 0.000128
v 0.281750 -0.066934 0.000905
v 0.228056 0.014782 -0.037506
v 0.277490 0.020847 -0.026696
v 0.249160 0.092765 -0.044508
v 0.246896 0.088215 0.014072
v 0.286790 -0.025737 -0.028698
v 0.325472 0.017839 -0.001294
v 0.204341 0.118872 -0.052259
v 0.157781 0.090006 -0.117482
v 0.249718 0.110877 -0.022246
v 0.100757 0.101159 -0.081119
v 0.328536 0.152109 -0.037520
v 0.218369 0.119824 0.035152
v 0.154886 0.159724 -0.057965
v 0.124803 0.178756 -0.111090
v 0.119266 0.232721 -0.040468
v 0.093638 0.137639 -0.049310
v 0.095407 0.156085 0.005033
v -0.148317 0.151023 -0.088233
v -0.093546 0.206700 -0.020956
v -0.221878 0.218101 -0.015858
v -0.258897 0.117754 -0.097823
v -0.323139 0.172473 -0.006571
v -0.240540 0.217725 0.009794
v -0.388896 0.087075 -0.023011
v -0.447948 0.108199 -0.000561
v -0.665253 0.085818 -0.001734
v 0.030669 0.011841 -0.111098
v -0.026961 0.084341 -0.103372
v -0.141448 0.076583 -0.107905
v -0.235465 -0.006435 -0.119614
v -0.278786 -0.000135 -0.122373
v -0.363757 0.036265 -0.030180
v 0.061577 -0.032356 -0.089608
v -0.052936 -0.014385 -0.087476
v -0.038133 -0.069588 -0.118425
v -0.061461 -0.040468 -0.060923
v -0.159134 0.012632 -0.092189
v -0.184332 -0.031906 -0.057027
v -0.091329 -0.060024 0.000858
v -0.236977 -0.051837 -0.022273
v -0.038635 -0.074998 -0.030848
v 0.004152 -0.081894 -0.081801
v 0.004385 -0.085751 -0.039246
v -0.035607 -0.078306 0.029739
v -0.241137 -0.058837 -0.105213
v -0.301760 -0.035251 -0.043086
v -0.256295 -0.060147 -0.060699
v -0.248331 -0.051934 0.023626
v -0.321049 -0.009847 -0.068504
v -0.365681 -0.003416 0.000093
v -0.314259 -0.175915 -0.147732
v -0.271835 -0.151524 -0.137783
v -0.668575 0.049008 -0.003084
v -0.258911 -0.200056 -0.165336
v -0.319879 -0.180122 -0.095967
v -0.278083 -0.149730 -0.092400
v -0.241453 -0.202100 -0.114390
v -0.294498 -0.204693 -0.130974
v -0.031174 -0.132065 -0.054605
v -0.013702 -0.154918 -0.111495
v -0.064066 -0.138826 -0.080578
v -0.048885 -0.200065 -0.114415
v -0.009878 -0.198296 -0.124664
v 0.016021 -0.202490 -0.080305
v -0.022078 -0.198324 -0.047609
v -0.267957 -0.152086 0.128154
v -0.253064 -0.199879 0.163025
v -0.240997 -0.202610 0.116537
v -0.023285 -0.171423 0.057733
v 0.017877 -0.202948 0.092414
v -0.041886 -0.199179 0.059849
v -0.016940 -0.159680 0.112461
v -0.035364 -0.198872 0.127272
v -0.064978 -0.133703 0.097944
v -0.047533 -0.113861 0.059389
v -0.029326 -0.069880 0.116466
v -0.063254 -0.073922 0.094417
v -0.010846 -0.093476 0.043557
v -0.067950 -0.037431 0.062541
v 0.001384 -0.085273 0.080758
v -0.043617 -0.010502 0.088966
v 0.026829 0.013264 0.111377
v 0.064638 -0.027515 0.089817
v -0.282680 -0.179719 0.095686
v -0.296937 -0.143783 0.146129
v -0.309324 -0.198453 0.138879
v -0.308805 -0.186504 0.095847
v -0.332427 -0.131098 0.111835
v -0.246219 -0.055296 0.061255
v -0.246124 -0.058583 0.119984
v -0.314613 -0.023593 0.044510
v -0.312641 0.007108 0.083752
v -0.278034 0.001814 0.121158
v -0.508578 0.029617 0.020706
v -0.364118 0.041913 0.032143
v -0.390030 0.087674 0.021624
v -0.183503 0.019648 0.101518
v -0.241900 0.090904 0.108769
v -0.283088 0.120022 0.087017
v -0.170453 0.070367 0.107538
v -0.096049 0.137048 0.091730
v -0.175769 -0.028390 0.058921
v 0.129525 0.009788 0.037726
v 0.080786 0.088829 0.087801
v -0.033826 0.069072 0.104545
v -0.315403 0.172182 0.012584
v -0.176807 0.169527 0.072090
v -0.136466 0.214275 0.021990
v 0.050072 0.147319 0.050062
v 0.103638 0.134834 0.070046
v 0.116570 0.091772 0.080478
v 0.121269 0.215585 0.070234
v 0.130146 0.151228 0.117204
v 0.173446 0.071876 0.112374
v 0.323064 0.147841 0.037837
v 0.249550 0.091552 0.043297
v 0.180146 0.131028 0.061070
v 0.193629 0.054781 0.065351
v 0.192474 -0.003252 0.034296
v 0.252366 0.023430 0.036464
v 0.292908 -0.000156 0.028080
vn -0.1315 -0.3401 -0.9312
vn 0.0231 -0.5247 -0.8510
vn -0.1860 -0.8398 -0.5100
vn 0.0276 -0.4104 -0.9115
vn 0.1594 -0.5015 -0.8503
vn 0.2429 -0.4308 -0.8692
vn 0.3966 -0.0705 -0.9153
vn 0.9228 0.3797 0.0652
vn 0.2032 0.0825 -0.9756
vn -0.2550 -0.5435 -0.7998
vn 0.7896 -0.4189 -0.4485
vn 0.4703 0.1314 -0.8727
vn 0.2599 0.1637 -0.9516
vn 0.8262 -0.0696 -0.5590
vn 0.9969 -0.0713 0.0330
vn -0.4919 -0.6587 -0.5694
vn -0.2644 -0.8480 -0.4593
vn -0.2717 0.7450 0.6092
vn 0.1343 -0.0631 -0.9889
vn 0.2008 0.9787 -0.0429
vn 0.7992 0.4801 0.3617
vn 0.5361 0.5609 -0.6309
vn 0.8639 0.3473 -0.3648
vn 0.8276 0.4754 -0.2984
vn 0.4682 -0.6911 0.5505
vn -0.5520 -0.1460 -0.8209
vn -0.9186 0.1422 -0.3687
vn -0.9196 0.2740 -0.2815
vn -0.9625 0.2649 -0.0586
vn 0.1542 0.6663 -0.7296
vn 0.1513 0.6975 -0.7004
vn 0.2858 0.9046 -0.3163
vn 0.0408 0.7532 -0.6566
vn -0.1329 0.6559 -0.7430
vn -0.4152 0.8625 -0.2894
vn -0.5140 0.5262 -0.6774
vn -0.3601 0.6662 -0.6530
vn -0.2224 0.3467 -0.9112
vn -0.0618 0.6406 -0.7654
vn 0.1402 0.2144 -0.9666
vn 0.5233 -0.1278 -0.8425
vn 0.0208 0.2572 -0.9661
vn 0.1060 0.3997 -0.9105
vn 0.0068 0.2561 -0.9666
vn 0.0897 0.1885 -0.9780
vn -0.5269 0.2576 -0.8100
vn -0.0257 0.1681 -0.9854
vn -0.7579 -0.2927 -0.5830
vn -0.0768 0.1019 -0.9918
vn 0.6562 -0.1904 -0.7302
vn 0.4966 -0.0733 -0.8649
vn -0.2442 -0.0912 -0.9654
vn 0.0506 -0.1717 -0.9838
vn -0.9344 -0.0531 -0.3522
vn -0.3601 0.3809 -0.8516
vn -0.0165 -0.2343 -0.9720
vn 0.3901 -0.3201 -0.8633
vn -0.1107 -0.5765 -0.8096
vn 0.3903 -0.6963 -0.6023
vn -0.0761 -0.9395 -0.3341
vn 0.0248 -0.8830 -0.4688
vn -0.0713 -0.7000 -0.7105
vn -0.4911 -0.7337 -0.4696
vn 0.4202 -0.5951 -0.6851
vn 0.6837 -0.6520 -0.3279
vn 0.5592 -0.8009 -0.2141
vn 0.6458 -0.7600 -0.0724
vn 0.3420 -0.2065 -0.9167
vn -0.2497 -0.9675 -0.0403
vn -0.2939 -0.9551 -0.0375
vn 0.3869 -0.9203 0.0583
vn 0.6933 -0.2598 -0.6722
vn -0.3379 -0.8704 0.3581
vn 0.2791 -0.9579 0.0669
vn -0.2298 -0.9715 -0.0589
vn -0.7599 -0.6463 -0.0692
vn -0.6428 -0.4447 -0.6237
vn -0.7577 -0.1807 -0.6271
vn 0.0813 0.1262 -0.9887
vn 0.9248 -0.1906 -0.3293
vn 0.1860 0.0760 -0.9796
vn -0.0866 0.0443 -0.9953
vn -0.0957 -0.6008 -0.7936
vn -0.0698 0.4784 -0.8754
vn -0.7842 0.2408 -0.5719
vn -0.9942 0.0104 -0.1071
vn -0.8357 -0.0930 0.5412
vn 0.1815 -0.3571 0.9162
vn 0.1569 -0.3632 0.9184
vn 0.8986 -0.3235 0.2965
vn 0.1376 -0.3001 0.9439
vn 0.8338 0.5441 0.0933
vn 0.9239 -0.3556 0.1413
vn -0.4736 -0.6629 -0.5799
vn -0.7786 -0.6129 -0.1343
vn -0.1183 -0.8511 0.5116
vn 0.8742 0.3939 -0.2838
vn 0.0685 -0.9956 -0.0634
vn 0.8011 -0.5957 -0.0584
vn 0.6707 0.1328 -0.7298
vn -0.9010 0.1078 -0.4201
vn -0.8905 -0.2691 0.3669
vn -0.5952 -0.1423 0.7909
vn -0.8688 0.0565 -0.4920
vn 0.1355 -0.0416 -0.9899
vn 0.8363 -0.3692 0.4052
vn 0.0870 -0.3732 0.9237
vn -0.2564 0.2600 -0.9309
vn 0.8364 0.5469 0.0372
vn 0.8514 0.2197 -0.4763
vn 0.6525 0.1676 0.7390
vn -0.6194 -0.0022 0.7850
vn -0.8457 -0.4030 0.3499
vn -0.0645 -0.9966 0.0518
vn 0.0177 -0.9944 -0.1043
vn 0.8824 0.4239 0.2041
vn 0.4307 -0.3520 -0.8311
vn 0.7051 0.6721 -0.2260
vn -0.0690 -0.9976 0.0112
vn 0.5499 0.0564 0.8333
vn -0.0719 0.3820 0.9214
vn -0.0958 -0.0117 -0.9953
vn -0.9214 -0.3778 0.0908
vn -0.8970 -0.0617 -0.4376
vn -0.3313 -0.0876 0.9395
vn -0.5492 0.0650 0.8332
vn -0.9115 0.0020 -0.4114
vn -0.9198 -0.0183 -0.3919
vn 0.0298 -0.6461 -0.7627
vn -0.8510 -0.4034 -0.3364
vn 0.9637 -0.2611 -0.0557
vn 0.9432 -0.1989 -0.2662
vn -0.3386 -0.1158 -0.9338
vn 0.7723 0.0784 0.6304
vn -0.5490 0.2388 0.8010
vn -0.8340 0.2981 0.4642
vn -0.3818 0.3112 0.8703
vn 0.4573 -0.6033 0.6534
vn 0.5870 0.4655 -0.6624
vn 0.5388 0.5996 0.5917
vn -0.3949 -0.0323 0.9182
vn -0.0454 -0.9979 0.0468
vn -0.2136 -0.8413 -0.4966
vn 0.2414 -0.9358 -0.2569
vn -0.9253 -0.3623 -0.1118
vn -0.6829 0.0582 0.7282
vn 0.9582 -0.2856 -0.0175
vn 0.9446 -0.2401 -0.2240
vn 0.0680 -0.2845 -0.9562
vn 0.0954 -0.2961 -0.9504
vn -0.4080 -0.9111 -0.0585
vn -0.8230 -0.1972 -0.5327
vn -0.9900 0.1310 -0.0527
vn -0.6287 0.2403 0.7396
vn -0.7031 0.2079 0.6800
vn 0.5170 -0.0460 0.8548
vn 0.2764 0.1275 0.9526
vn -0.1635 -0.9236 0.3467
vn -0.1497 -0.0228 0.9885
vn -0.0924 0.1731 0.9806
vn -0.0156 -0.5769 0.8167
vn 0.1882 0.0804 0.9788
vn 0.1926 0.0581 0.9796
vn -0.3066 0.2520 0.9179
vn 0.0636 0.1624 0.9847
vn -0.0156 -0.1139 0.9934
vn 0.6915 -0.4138 0.5921
vn -0.7499 -0.2877 0.5956
vn -0.5554 0.2087 0.8050
vn -0.7374 -0.1000 0.6680
vn -0.7591 -0.4936 0.4243
vn -0.6860 -0.4042 0.6051
vn -0.3740 -0.9249 0.0682
vn -0.4119 -0.9092 0.0606
vn 0.3519 -0.9304 -0.1029
vn 0.3548 -0.9335 -0.0528
vn -0.0537 -0.9984 -0.0154
vn 0.0299 -0.8588 0.5114
vn -0.4820 -0.7478 0.4566
vn -0.0900 -0.9237 0.3724
vn -0.4470 -0.8793 -0.1643
vn 0.5220 -0.8528 0.0164
vn 0.5158 -0.8565 0.0163
vn 0.6224 -0.7271 0.2897
vn 0.6491 -0.6940 0.3116
vn 0.3402 -0.1732 0.9243
vn 0.6508 -0.0772 0.7553
vn 0.4554 -0.0478 0.8890
vn -0.0809 -0.6686 0.7393
vn -0.0759 -0.6626 0.7451
vn 0.0206 -0.1231 0.9922
vn 0.0453 -0.1973 0.9793
vn 0.0234 0.2058 0.9783
vn -0.2512 -0.1561 0.9553
vn 0.1019 0.2293 0.9680
vn 0.0941 0.2669 0.9591
vn -0.0846 0.1571 0.9840
vn -0.5500 0.5527 0.6261
vn -0.2550 0.7364 0.6267
vn -0.1080 0.4924 0.8637
vn -0.0373 0.4476 0.8934
vn -0.3160 0.5661 0.7613
vn 0.1078 0.6968 0.7091
vn 0.1805 0.5984 0.7806
vn 0.1484 0.7044 0.6941
vn -0.2203 0.4445 0.8683
vn 0.1703 0.2800 0.9448
vn -0.0696 0.6352 0.7692
vn -0.2416 0.3116 0.9190
vn -0.3890 0.6777 0.6240
vn -0.4591 0.8806 -0.1175
vn 0.0289 0.9989 0.0357
vn -0.0500 0.7645 0.6426
vn 0.0846 0.9923 -0.0905
vn 0.2480 0.9657 0.0775
vn 0.2496 0.8720 0.4211
vn 0.1107 0.9487 0.2961
vn -0.9403 0.3335 0.0686
vn -0.9593 0.2090 0.1898
vn -0.8825 0.1917 0.4294
vn -0.8449 -0.1279 0.5194
vn -0.5480 -0.3454 0.7618
vn 0.6092 -0.7922 0.0351
vn -0.1070 0.4830 -0.8690
vn -0.0775 0.1961 0.9775
vn 0.8183 0.5736 -0.0354
vn 0.6324 0.7729 0.0521
vn 0.2492 0.9671 -0.0505
vn 0.9023 0.4283 0.0500
vn 0.7386 0.4609 0.4920
vn 0.8645 0.4593 0.2041
vn -0.4026 -0.9021 0.1552
vn 0.7655 0.1702 0.6206
vn 0.5246 0.7127 0.4656
vn 0.2149 -0.4247 0.8795
vn -0.0516 -0.4682 0.8821
vn -0.0495 -0.4705 0.8810
vn 0.4078 -0.0744 0.9100
vn 0.9941 0.0507 -0.0961
vn 0.3032 0.1068 0.9469
vn 0.3720 0.3311 0.8672
vn 0.8893 0.4507 -0.0775
vn -0.1498 0.9084 0.3904
vn 0.7267 -0.3596 0.5853
vn -0.0253 -0.3732 0.9274
vn 0.1138 -0.3315 0.9366
vn 0.1767 -0.4671 0.8663
vn -0.5458 -0.8290 0.1219
vn 0.0397 -0.9722 0.2306
vn -0.1400 -0.8212 0.5532
s off
f 1//1 2//1 3//1
f 1//2 3//2 4//2
f 1//3 4//3 5//3
f 6//4 4//4 7//4
f 4//5 3//5 7//5
f 7//6 3//6 8//6
f 8//7 3//7 9//7
f 8//8 9//8 10//8
f 8//9 11//9 7//9
f 11//10 6//10 7//10
f 11//11 12//11 6//11
f 11//12 8//12 12//12
f 3//13 13//13 9//13
f 13//14 3//14 14//14
f 15//15 10//15 9//15
f 2//16 16//16 14//16
f 2//17 14//17 3//17
f 17//18 13//18 15//18
f 13//19 17//19 9//19
f 15//20 13//20 18//20
f 18//21 10//21 15//21
f 13//22 14//22 19//22
f 19//23 14//23 20//23
f 20//24 21//24 19//24
f 9//25 17//25 15//25
f 16//26 20//26 14//26
f 20//27 16//27 22//27
f 20//28 22//28 21//28
f 23//29 21//29 22//29
f 22//30 16//30 24//30
f 22//31 24//31 25//31
f 22//32 25//32 23//32
f 25//33 24//33 26//33
f 26//34 24//34 27//34
f 26//35 28//35 29//35
f 28//36 27//36 30//36
f 28//37 26//37 27//37
f 30//38 31//38 28//38
f 31//39 30//39 32//39
f 16//40 33//40 34//40
f 16//41 2//41 33//41
f 34//42 35//42 24//42
f 34//43 24//43 16//43
f 24//44 35//44 27//44
f 27//45 36//45 37//45
f 27//46 37//46 30//46
f 27//47 35//47 36//47
f 30//48 37//48 38//48
f 30//49 38//49 32//49
f 2//50 1//50 39//50
f 2//51 39//51 33//51
f 34//52 33//52 40//52
f 34//53 40//53 35//53
f 40//54 41//54 42//54
f 40//55 33//55 41//55
f 40//56 43//56 35//56
f 35//57 43//57 36//57
f 43//58 40//58 44//58
f 43//59 44//59 36//59
f 42//60 45//60 44//60
f 44//61 45//61 46//61
f 44//62 40//62 42//62
f 42//63 47//63 45//63
f 39//64 48//64 41//64
f 1//65 5//65 39//65
f 39//66 5//66 49//66
f 39//67 49//67 48//67
f 39//68 41//68 33//68
f 49//69 50//69 47//69
f 47//70 50//70 45//70
f 51//71 44//71 46//71
f 44//72 51//72 36//72
f 46//73 52//73 53//73
f 46//74 53//74 51//74
f 46//75 54//75 52//75
f 52//76 38//76 55//76
f 38//77 52//77 56//77
f 38//78 37//78 55//78
f 37//79 36//79 57//79
f 36//80 51//80 58//80
f 36//81 58//81 57//81
f 38//82 59//82 32//82
f 56//83 59//83 38//83
f 58//84 60//84 57//84
f 37//85 57//85 55//85
f 55//86 57//86 61//86
f 55//87 61//87 52//87
f 52//88 61//88 62//88
f 52//89 62//89 53//89
f 53//90 62//90 51//90
f 62//91 61//91 63//91
f 62//92 63//92 58//92
f 51//93 62//93 58//93
f 57//94 60//94 64//94
f 64//95 61//95 57//95
f 64//96 63//96 61//96
f 60//97 58//97 63//97
f 60//98 63//98 64//98
f 48//99 49//99 65//99
f 41//100 48//100 66//100
f 42//101 41//101 67//101
f 42//102 65//102 47//102
f 42//103 67//103 65//103
f 41//104 68//104 67//104
f 41//105 66//105 68//105
f 66//106 48//106 65//106
f 49//107 47//107 65//107
f 68//108 66//108 69//108
f 66//109 65//109 70//109
f 66//110 70//110 69//110
f 65//111 71//111 70//111
f 65//112 67//112 71//112
f 67//113 68//113 71//113
f 71//114 68//114 70//114
f 68//115 69//115 70//115
f 72//116 73//116 74//116
f 75//117 76//117 77//117
f 76//118 75//118 78//118
f 76//119 79//119 77//119
f 78//120 79//120 76//120
f 79//121 78//121 80//121
f 77//122 81//122 75//122
f 79//123 80//123 77//123
f 77//124 80//124 81//124
f 80//125 78//125 82//125
f 80//126 82//126 83//126
f 80//127 83//127 81//127
f 81//128 83//128 50//128
f 50//129 84//129 81//129
f 50//130 83//130 85//130
f 78//131 75//131 86//131
f 84//132 86//132 75//132
f 75//133 81//133 84//133
f 86//134 82//134 78//134
f 82//135 87//135 83//135
f 83//136 87//136 85//136
f 82//137 88//137 87//137
f 82//138 86//138 89//138
f 74//139 90//139 72//139
f 72//140 91//140 73//140
f 73//141 91//141 92//141
f 92//142 74//142 73//142
f 74//143 92//143 90//143
f 90//144 92//144 93//144
f 92//145 94//145 93//145
f 92//146 91//146 94//146
f 90//147 95//147 96//147
f 90//148 96//148 72//148
f 90//149 93//149 95//149
f 95//150 93//150 97//150
f 95//151 97//151 54//151
f 93//152 94//152 97//152
f 97//153 94//153 98//153
f 94//154 91//154 98//154
f 98//155 91//155 99//155
f 91//156 72//156 96//156
f 91//157 96//157 99//157
f 56//158 100//158 59//158
f 100//159 32//159 59//159
f 100//160 101//160 102//160
f 100//161 56//161 101//161
f 96//162 103//162 99//162
f 103//163 104//163 99//163
f 104//164 105//164 99//164
f 106//165 107//165 104//165
f 106//166 104//166 103//166
f 103//167 96//167 108//167
f 99//168 102//168 101//168
f 99//169 105//169 102//169
f 99//170 101//170 98//170
f 98//171 101//171 97//171
f 101//172 56//172 97//172
f 52//173 54//173 97//173
f 52//174 97//174 56//174
f 95//175 54//175 108//175
f 95//176 108//176 96//176
f 54//177 46//177 45//177
f 45//178 108//178 54//178
f 45//179 50//179 85//179
f 45//180 85//180 108//180
f 49//181 84//181 50//181
f 84//182 49//182 86//182
f 49//183 5//183 86//183
f 5//184 89//184 86//184
f 5//185 109//185 89//185
f 88//186 82//186 89//186
f 89//187 109//187 110//187
f 89//188 110//188 88//188
f 108//189 85//189 103//189
f 85//190 87//190 103//190
f 103//191 111//191 106//191
f 103//192 87//192 111//192
f 106//193 111//193 107//193
f 87//194 88//194 111//194
f 111//195 88//195 110//195
f 111//196 110//196 107//196
f 100//197 102//197 32//197
f 102//198 105//198 112//198
f 105//199 113//199 112//199
f 105//200 104//200 113//200
f 104//201 107//201 113//201
f 113//202 29//202 112//202
f 107//203 114//203 113//203
f 107//204 110//204 115//204
f 107//205 115//205 114//205
f 110//206 116//206 115//206
f 110//207 117//207 116//207
f 32//208 102//208 31//208
f 112//209 31//209 102//209
f 29//210 31//210 112//210
f 31//211 29//211 28//211
f 29//212 114//212 26//212
f 29//213 113//213 114//213
f 114//214 25//214 26//214
f 114//215 23//215 25//215
f 114//216 115//216 23//216
f 115//217 116//217 23//217
f 21//218 23//218 118//218
f 118//219 23//219 116//219
f 118//220 116//220 119//220
f 116//221 117//221 119//221
f 120//222 119//222 117//222
f 121//223 122//223 10//223
f 10//224 18//224 121//224
f 122//225 121//225 18//225
f 19//226 118//226 123//226
f 19//227 123//227 13//227
f 123//228 18//228 13//228
f 19//229 21//229 118//229
f 119//230 123//230 118//230
f 119//231 120//231 124//231
f 120//232 117//232 124//232
f 124//233 123//233 119//233
f 18//234 123//234 122//234
f 117//235 110//235 109//235
f 117//236 109//236 124//236
f 124//237 109//237 125//237
f 124//238 126//238 122//238
f 122//239 126//239 10//239
f 122//240 123//240 124//240
f 10//241 126//241 127//241
f 10//242 127//242 8//242
f 8//243 127//243 12//243
f 12//244 127//244 6//244
f 127//245 126//245 6//245
f 125//246 6//246 126//246
f 126//247 124//247 125//247
f 6//248 125//248 4//248
f 4//249 125//249 5//249
f 5//250 125//250 109//250
